<svg clip-rule="evenodd" fill-rule="evenodd" stroke-linejoin="round" stroke-miterlimit="1.41421" viewBox="0 0 24 24"
  xmlns="http://www.w3.org/2000/svg">
  <path
    d="m16.381 13.025c0-.337-.129-.495-.337-.495-.064 0-.122.015-.165.043-.315.523-.595.753-1.068.753-.409 0-.689-.165-.846-.48.487-.91.824-1.656.824-2.68 0-1.77-1.004-2.666-2.789-2.666s-2.789.896-2.789 2.666c0 1.024.337 1.77.824 2.68-.157.315-.437.48-.846.48-.473 0-.753-.23-1.068-.753-.043-.028-.101-.043-.165-.043-.208 0-.337.158-.337.495 0 .817.724 1.49 1.771 1.49.272 0 .559-.043.875-.158-.416 1.032-.875 1.247-1.492 1.097-.158.079-.208.243-.208.372 0 .344.359.674 1.097.674 1.062 0 1.893-.666 2.216-2.085.036-.036.065-.065.122-.065s.086.029.122.065c.323 1.419 1.154 2.085 2.216 2.085.738 0 1.097-.33 1.097-.674 0-.129-.05-.293-.208-.372-.617.15-1.076-.065-1.492-1.097.316.115.603.158.875.158 1.047 0 1.771-.673 1.771-1.49"
    fill="#09b584" />
</svg>